<svg width="1040" height="1078" viewBox="0 0 1040 1078" fill="none" xmlns="http://www.w3.org/2000/svg">
<rect width="1040" height="88" fill="#DBDBDB"/>
<rect width="185" height="36" transform="translate(40 26)" fill="#F7F7F7"/>
<rect width="298" height="36" transform="translate(362 26)" fill="#F7F7F7"/>
<rect width="185" height="36" transform="translate(797 26)" fill="#F7F7F7"/>
<rect width="1040" height="330" transform="translate(0 88)" fill="#EEEEEE"/>
<rect width="185" height="36" transform="translate(49 235)" fill="#F7F7F7"/>
<rect width="298" height="36" transform="translate(371 235)" fill="#F7F7F7"/>
<rect width="185" height="274" transform="translate(806 116)" fill="#F7F7F7"/>
<rect width="1040" height="330" transform="translate(0 418)" fill="#EEEEEE"/>
<rect width="185" height="36" transform="translate(49 565)" fill="#F7F7F7"/>
<rect width="298" height="36" transform="translate(371 565)" fill="#F7F7F7"/>
<rect width="185" height="274" transform="translate(806 446)" fill="#F7F7F7"/>
<rect width="1040" height="330" transform="translate(0 748)" fill="#EEEEEE"/>
<rect width="185" height="36" transform="translate(49 895)" fill="#F7F7F7"/>
<rect width="298" height="36" transform="translate(371 895)" fill="#F7F7F7"/>
<rect width="185" height="274" transform="translate(806 776)" fill="#F7F7F7"/>
</svg>
